<?xml version="1.0" encoding="UTF-8" standalone="no"?><!DOCTYPE svg PUBLIC "-//W3C//DTD SVG 1.1//EN" "http://www.w3.org/Graphics/SVG/1.1/DTD/svg11.dtd"><svg width="100%" height="100%" viewBox="0 0 122 123" version="1.1" xmlns="http://www.w3.org/2000/svg" xmlns:xlink="http://www.w3.org/1999/xlink" xml:space="preserve" xmlns:serif="http://www.serif.com/" style="fill-rule:evenodd;clip-rule:evenodd;stroke-linejoin:round;stroke-miterlimit:2;"><g id="Logo-invertiert-schwarz" serif:id="Logo invertiert schwarz"><g><path d="M26.907,2.085" style="fill:none;stroke:#181715;stroke-width:2.24px;stroke-linecap:square;stroke-linejoin:miter;stroke-miterlimit:1.5;"/><path d="M26.907,79.213l0,41.544l68.18,0l0,-89.022" style="fill:none;stroke:#181715;stroke-width:2.24px;stroke-linecap:square;stroke-linejoin:miter;stroke-miterlimit:1.5;"/><path d="M96.414,55.677l23.466,-0.203l0,-29.713" style="fill:none;stroke:#181715;stroke-width:2.24px;stroke-linecap:square;stroke-linejoin:miter;stroke-miterlimit:1.5;"/><path d="M57.898,31.735l0,89.022" style="fill:none;stroke:#181715;stroke-width:2.24px;stroke-linecap:square;stroke-linejoin:miter;stroke-miterlimit:1.5;"/><path d="M26.907,41.757c0,-6.296 -2.612,-12.334 -7.261,-16.786c-4.326,-4.142 -10.087,-6.595 -16.17,-6.914" style="fill:none;stroke:#181715;stroke-width:2.24px;stroke-linecap:round;stroke-miterlimit:1.5;"/><path d="M119.88,25.761c0,-6.296 -2.612,-12.334 -7.261,-16.786c-4.326,-4.142 -10.087,-6.596 -16.17,-6.914" style="fill:none;stroke:#181715;stroke-width:2.24px;stroke-linecap:round;stroke-miterlimit:1.5;"/><path d="M3.476,18.057c1.211,-3.375 3.216,-6.473 5.9,-9.043c4.643,-4.446 10.938,-6.946 17.531,-6.953l5.096,-0" style="fill:none;stroke:#181715;stroke-width:2.24px;stroke-linecap:round;stroke-miterlimit:1.5;"/><path d="M32.003,2.061l4.202,-0l17.355,23.739l-17.355,0l-4.202,-23.739" style="fill:none;stroke:#181715;stroke-width:2.24px;stroke-miterlimit:1.5;"/><path d="M53.56,25.8l4.338,5.935l0,-11.87c0,0 18.595,2.386 18.595,-14.837l-0,-2.967" style="fill:none;stroke:#181715;stroke-width:2.24px;stroke-miterlimit:1.5;"/><path d="M96.414,2.061l-60.25,-0" style="fill:none;stroke:#181715;stroke-width:2.24px;stroke-linecap:round;stroke-miterlimit:1.5;"/><path d="M57.898,31.735l0,-11.87" style="fill:none;stroke:#181715;stroke-width:2.24px;stroke-linecap:round;stroke-miterlimit:1.5;"/><path d="M26.907,41.757l0,79l-24.792,0l-0,-65.821" style="fill:none;stroke:#181715;stroke-width:2.24px;stroke-linecap:round;stroke-linejoin:miter;stroke-miterlimit:1.5;"/><path d="M2.115,54.936l-0,-29.137c-0,-2.661 0.466,-5.277 1.361,-7.742" style="fill:none;stroke:#181715;stroke-width:2.24px;stroke-linecap:square;stroke-linejoin:miter;stroke-miterlimit:1.5;"/><g><path d="M119.457,49.539l-23.043,0l23.043,0Z" style="fill:none;stroke:#181715;stroke-width:2.24px;stroke-linecap:square;stroke-linejoin:miter;stroke-miterlimit:1.5;"/><path d="M95.087,114.803l-36.746,-0l36.746,-0Z" style="fill:none;stroke:#181715;stroke-width:2.24px;stroke-linecap:square;stroke-linejoin:miter;stroke-miterlimit:1.5;"/><path d="M82.691,49.539l-12.396,0l12.396,0Z" style="fill:none;stroke:#181715;stroke-width:2.24px;stroke-linecap:square;stroke-linejoin:miter;stroke-miterlimit:1.5;"/></g><path d="M7.03,115.037l0.185,0l-0.185,0Z" style="fill:none;stroke:#181715;stroke-width:2.24px;stroke-linecap:square;stroke-linejoin:miter;stroke-miterlimit:1.5;"/><path d="M2.326,109.653l24.447,0l-24.447,0Z" style="fill:none;stroke:#181715;stroke-width:2.24px;stroke-linecap:square;stroke-linejoin:miter;stroke-miterlimit:1.5;"/><path d="M50.151,43.604l-23.244,0l0,21.051l11.101,5.656l12.143,-5.656l-0,-21.051Z" style="fill:none;stroke:#181715;stroke-width:2.24px;stroke-linecap:square;stroke-linejoin:miter;stroke-miterlimit:1.5;"/></g></g></svg>